<svg width="63" height="63" viewBox="0 0 63 63" xmlns="http://www.w3.org/2000/svg"><title>Gridonic AG</title><g fill="none" fill-rule="evenodd"><circle fill="#000" cx="31.5" cy="31.5" r="31.5"/><g fill="#FFF"><path d="M19.843 30.725l-2.292-2.299 2.292-2.298 2.291 2.298-2.291 2.3M43.078 30.73l-2.292-2.3 2.292-2.298 2.292 2.299-2.292 2.298M27.956 22.59l3.506-3.517L34.98 22.6l-3.507 3.517-3.517-3.529zm11.623 11.659l-5.808-5.827 5.803-5.82-8.112-8.137-8.1 8.124 11.623 11.66-3.518 3.528-5.808-5.826-2.297 2.304 5.809 5.826-5.776 5.792 2.297 2.304 5.776-5.792 5.808 5.826 2.297-2.304-5.809-5.826 5.815-5.832z"/></g></g></svg>